PathFileType	4	(X/Y/Z)	s01c0201.trc
DataRate	CameraRate	NumFrames	NumMarkers	Units	OrigDataRate	OrigDataStartFrame	OrigNumFrames
200	200	7	48	mm	200	1750	2000
Frame#	Time	racr			lacr			c7			jug			rlel			rdr			llel			ldr			s2			lic			ric			lasi			rasi			rpsi			lpsi			rgt			lgt			rth1			rth2			rth3			rth4			rlfc			rsh1			rsh2			rsh3			rsh4			rlmal			rmmal			rcal			rtoe			rmt5			lth1			lth2			lth4			lth3			llfc			lsh1			lsh2			lsh3			lsh4			llmal			lmmal			lcal			ltoe			lmt5			SBIKE			LBIKE			RBIKE			
		X1	Y1	Z1	X2	Y2	Z2	X3	Y3	Z3	X4	Y4	Z4	X5	Y5	Z5	X6	Y6	Z6	X7	Y7	Z7	X8	Y8	Z8	X9	Y9	Z9	X10	Y10	Z10	X11	Y11	Z11	X12	Y12	Z12	X13	Y13	Z13	X14	Y14	Z14	X15	Y15	Z15	X16	Y16	Z16	X17	Y17	Z17	X18	Y18	Z18	X19	Y19	Z19	X20	Y20	Z20	X21	Y21	Z21	X22	Y22	Z22	X23	Y23	Z23	X24	Y24	Z24	X25	Y25	Z25	X26	Y26	Z26	X27	Y27	Z27	X28	Y28	Z28	X29	Y29	Z29	X30	Y30	Z30	X31	Y31	Z31	X32	Y32	Z32	X33	Y33	Z33	X34	Y34	Z34	X35	Y35	Z35	X36	Y36	Z36	X37	Y37	Z37	X38	Y38	Z38	X39	Y39	Z39	X40	Y40	Z40	X41	Y41	Z41	X42	Y42	Z42	X43	Y43	Z43	X44	Y44	Z44	X45	Y45	Z45	X46	Y46	Z46	X47	Y47	Z47	X48	Y48	Z48	
1750	8.7500	519.730774	1240.761963	-67.659546	539.591553	1234.005371	-430.946564	512.466980	1356.605225	-250.859344	496.375824	1190.157349	-248.970093	459.366699	977.925964	46.862011	651.382446	868.697449	-56.651581	469.562378	979.446472	-560.409424	656.894409	878.131714	-441.099792	-15.595046	1151.724365	-262.959137	153.002640	1163.742920	-435.043518	129.605560	1161.961426	-98.970955	160.109253	1115.759277	-408.490234	163.210510	1117.154419	-127.505844	12.010340	1192.573364	-212.059250	10.904482	1195.905396	-316.215576	86.683891	1039.241333	-78.660797	117.288925	1039.436279	-456.907928	165.831055	928.792969	-61.188828	217.908081	864.645264	-66.631813	269.508240	790.981750	-78.841042	262.317200	896.733093	-80.432877	315.200348	684.667542	-97.345245	281.786896	571.376465	-61.200153	272.902496	487.004089	-64.010788	255.267792	400.160675	-72.341736	320.826508	480.813416	-101.526047	219.485138	277.951416	-90.285881	265.884857	290.713501	-164.583313	178.295410	255.830383	-141.871094	443.299683	203.945816	-132.001221	337.934814	182.917389	-60.144001	219.084076	972.348999	-451.449615	307.344025	957.716431	-450.511383	317.190735	1009.141174	-435.653320	387.706390	932.839172	-432.463013	464.098541	851.899475	-399.206390	368.799072	797.098816	-435.401855	302.899628	741.556641	-428.864777	235.379623	689.953491	-417.514038	338.609192	703.101074	-396.985779	137.666641	613.356689	-403.755859	164.171005	601.967468	-322.703766	79.907867	623.925171	-359.462097	252.012726	404.619873	-371.988831	165.954361	470.873077	-435.968262	-223.144562	893.657471	-249.846207	-12.098948	84.506805	-453.812714	-20.295599	80.820290	-53.801975	
1751	8.7550	520.475830	1240.801147	-69.464539	538.505005	1233.970581	-432.859833	512.146423	1356.569214	-252.696564	496.453003	1190.285767	-250.653366	459.644714	978.568237	46.421173	651.402893	868.756531	-56.595261	468.822968	978.393250	-560.720093	656.562195	878.217224	-441.060333	-15.544559	1151.020630	-262.464905	152.630249	1163.384766	-435.335754	130.399338	1161.349976	-99.459450	160.153915	1115.556396	-408.451813	163.173172	1116.282593	-127.548370	11.918923	1192.178589	-211.554001	10.894812	1195.045288	-315.844696	85.618736	1038.466553	-78.374100	116.894394	1040.505615	-457.383514	162.533966	927.292297	-59.712620	213.406967	862.041931	-65.020233	263.425232	787.496582	-76.669449	258.479828	893.419800	-78.299156	307.366058	679.958984	-94.405914	273.561401	567.085144	-58.650879	264.890839	482.668396	-61.645039	247.492706	395.794220	-70.359985	313.295074	476.634094	-98.567047	212.323456	272.712402	-89.796799	258.353424	286.012604	-162.752289	171.483978	252.433044	-140.891479	435.339203	196.017273	-132.448700	329.763214	176.161575	-60.388763	219.848541	975.194763	-451.551941	308.442474	962.922729	-451.232452	316.850983	1014.572632	-436.070312	389.593750	940.320679	-433.135895	468.967438	861.531006	-400.117584	374.738708	806.206299	-434.970581	309.364960	750.085449	-428.638733	242.369263	697.508911	-416.918762	345.472260	711.858093	-396.870178	145.020386	619.687866	-403.432007	171.892899	608.931030	-322.118408	87.054390	629.916504	-358.957031	260.957947	412.405670	-372.296814	174.163818	478.068665	-435.410339	-223.172272	893.661621	-249.795273	-12.110911	84.488426	-453.806183	-20.298599	80.793640	-53.793655	
1752	8.7600	521.337891	1240.914185	-71.251175	537.424072	1233.893555	-434.792725	511.900269	1356.553833	-254.549667	496.489594	1190.406616	-252.457077	459.909943	979.387756	45.957928	651.414246	868.844849	-56.537392	467.983429	977.530701	-561.055481	656.230286	878.325623	-441.115326	-15.555344	1150.411133	-261.902527	152.351532	1163.210815	-435.699921	131.267792	1160.789917	-99.908478	160.166397	1115.461182	-408.433746	163.133163	1115.681152	-127.557899	11.810399	1191.876221	-211.082977	10.834273	1194.320435	-315.432343	84.545883	1037.769165	-78.117210	116.494980	1041.350708	-457.654938	159.266083	926.119141	-58.245464	208.895538	859.768005	-63.063156	257.569672	784.458557	-74.079262	254.519028	890.952087	-75.728439	299.872925	675.863220	-91.366829	265.387146	563.401001	-56.060013	256.842590	478.918945	-59.313690	239.453201	392.135803	-68.314392	305.662994	473.030457	-95.272827	205.445068	269.469421	-88.679390	250.681290	282.029175	-160.865509	164.395279	249.604630	-139.733337	427.056732	188.677963	-132.832458	321.665070	170.365417	-59.966824	220.322617	977.699707	-451.730255	309.204803	967.902527	-451.921600	316.434662	1019.829590	-436.774536	391.056213	947.444702	-433.917114	473.877747	871.358826	-400.248474	380.124634	816.075623	-435.484436	315.500793	758.365356	-428.343292	249.162216	705.003662	-416.675201	352.141632	720.422668	-396.899628	152.255112	625.421997	-403.108063	179.503708	615.349792	-321.806488	94.065399	635.104248	-358.559814	269.655609	418.803864	-371.099213	182.574890	483.994385	-434.966766	-223.198837	893.679016	-249.708740	-12.101776	84.511559	-453.781281	-20.312572	80.810555	-53.774738	
1753	8.7650	522.139709	1241.001465	-73.220406	536.333618	1233.745850	-436.813110	511.781036	1356.470581	-256.466431	496.494446	1190.377319	-254.324493	460.147186	980.040955	45.492588	651.437317	868.935669	-56.458996	467.069092	976.741394	-561.426636	655.866882	878.426392	-441.176697	-15.594394	1149.917480	-261.503540	152.229095	1163.186646	-435.972626	132.070114	1160.369141	-100.349022	160.145538	1115.471313	-408.433228	163.023895	1115.181763	-127.615883	11.692060	1191.616577	-210.709000	10.726297	1193.748779	-315.004730	83.425003	1037.130615	-77.689560	116.037926	1041.976685	-457.859192	156.042328	925.270630	-56.693775	204.500504	858.078125	-60.988987	251.931320	781.855225	-71.373146	250.606079	887.875488	-74.113487	292.591888	672.435425	-88.228264	257.452911	560.326111	-53.464901	248.740509	475.822083	-56.886127	231.336639	389.115387	-66.297333	297.781738	469.817291	-92.000298	198.121704	266.415588	-87.548271	242.925964	278.754730	-158.970703	156.444122	248.534836	-136.909790	418.430542	181.737350	-133.101868	313.094879	165.015656	-59.739059	220.642639	979.975647	-451.907593	309.756622	972.428833	-452.350220	315.846588	1024.726929	-437.395996	392.205170	954.146545	-434.586151	477.942139	881.114441	-400.568817	385.484467	824.450439	-435.049347	321.283173	766.402039	-428.166504	255.703430	712.199524	-416.485596	358.530518	728.860657	-397.097046	159.352295	630.515442	-402.795837	186.757980	621.215027	-321.160217	100.885590	639.507385	-358.105194	279.394501	425.564728	-370.813324	191.595367	489.669739	-434.550537	-223.235123	893.672974	-249.634598	-12.127560	84.525452	-453.762543	-20.324966	80.805244	-53.763256	
1754	8.7700	523.015930	1240.947510	-75.099052	535.218079	1233.495117	-438.832489	511.720795	1356.369873	-258.366852	496.447174	1190.242065	-256.115082	460.372894	980.854248	45.068134	651.465576	869.046875	-56.414452	466.169250	975.869324	-561.802124	655.822083	878.760376	-441.077881	-15.804826	1149.516479	-261.393219	152.178619	1163.271240	-436.183533	132.866348	1159.999146	-100.898323	160.092758	1115.589355	-408.443054	162.896042	1114.840820	-127.646729	11.590165	1191.405396	-210.417343	10.587406	1193.331665	-314.583557	82.288551	1036.569214	-77.251961	115.654327	1042.519653	-457.944946	152.804245	924.698242	-55.141281	200.176666	856.684021	-58.778763	246.497604	779.655151	-68.516624	246.745895	885.952515	-71.080612	285.669678	669.786682	-84.973183	249.741745	557.729736	-50.876648	240.776550	473.300293	-54.538715	223.237930	386.565704	-64.310745	290.368439	467.088257	-88.772522	190.907410	263.819641	-86.197754	235.144913	276.180756	-157.115616	149.031693	247.740585	-135.465317	409.466675	175.180038	-133.543762	304.244263	160.359314	-59.547886	220.819565	982.019043	-451.904968	310.044037	976.611206	-452.660828	314.998230	1029.146118	-438.076233	393.057861	960.147095	-434.657715	481.584625	890.471741	-400.942596	390.157257	833.063354	-434.770691	326.679657	774.307190	-428.162079	261.914490	719.070618	-416.297913	364.562531	736.894775	-397.341339	166.302216	634.924988	-402.507477	193.935181	626.533264	-320.777344	107.307236	642.865662	-357.606293	289.601471	432.253479	-370.566498	200.818497	494.854767	-434.277100	-223.288132	893.668152	-249.537109	-12.128962	84.549706	-453.760742	-20.329206	80.792343	-53.747921	
1755	8.7750	523.837280	1240.948730	-77.062370	534.120789	1233.224121	-440.893463	511.823608	1356.191772	-260.276337	496.414368	1190.120972	-258.019928	460.614807	981.529480	44.612225	651.505615	869.164734	-56.389004	465.214539	975.121704	-562.194214	655.169739	878.671997	-441.521149	-15.990990	1149.291260	-261.283508	152.126953	1163.525024	-436.365997	133.429977	1159.864624	-101.340950	160.005447	1115.826538	-408.455475	162.696335	1114.656738	-127.585152	11.482696	1191.259888	-210.165115	10.422314	1193.087769	-314.191193	81.088921	1036.335938	-76.829536	115.415443	1042.854004	-457.902130	149.590363	924.410156	-53.587997	196.027039	855.700134	-56.596504	241.196609	777.957642	-65.066383	243.251953	884.173767	-68.719040	279.144012	667.637329	-81.800423	242.218384	555.704346	-48.385342	233.001892	471.341248	-52.315769	215.274704	384.634338	-62.474995	283.176849	464.839172	-85.653893	183.180466	262.435730	-85.331612	227.395630	274.298798	-155.348007	141.563339	247.474319	-134.122955	400.259430	169.353348	-133.872818	295.128540	156.307968	-59.355350	220.889191	983.960693	-451.713593	310.201721	980.454956	-452.893951	313.956085	1032.942383	-438.085510	393.642639	965.867554	-435.119232	485.833191	900.068115	-400.928986	394.148346	841.094727	-435.039703	331.720673	781.816345	-427.962494	267.838501	725.411255	-415.808716	370.335480	744.574036	-397.835876	173.100082	638.609253	-402.255493	196.822159	632.775452	-315.305664	114.032974	645.865295	-357.311157	299.949280	438.281036	-370.325989	210.101990	499.469360	-433.920898	-223.324020	893.689148	-249.440170	-12.144750	84.540314	-453.782074	-20.322212	80.791519	-53.737679	
1756	8.7800	524.715698	1240.852783	-79.044693	533.065491	1232.859863	-442.996429	511.946289	1355.976074	-262.148621	496.210083	1190.028442	-259.829865	460.822784	982.282654	44.162434	651.949707	869.330994	-56.493507	464.258240	974.424377	-562.582153	654.790833	878.804016	-441.621002	-16.212055	1149.273560	-261.265594	152.068283	1163.807739	-436.480103	133.823212	1159.769409	-101.796127	159.879913	1116.199097	-408.461884	162.419891	1114.649414	-127.460922	11.388394	1191.279175	-210.038055	10.241082	1193.027344	-313.854614	79.949997	1036.327759	-76.422195	115.265251	1043.201050	-457.818604	146.483017	924.370056	-52.107594	191.906540	855.152954	-54.420101	236.341476	776.676575	-62.270306	239.940628	882.815369	-65.860374	273.005493	666.033081	-78.650024	235.309738	554.216919	-45.965122	225.607407	469.938416	-50.194233	207.536652	383.485596	-60.729321	276.323364	463.233307	-82.612823	175.703888	261.682587	-84.095596	219.735596	273.100342	-153.715607	134.160217	248.042770	-132.987946	390.914307	164.008179	-134.115356	285.817596	152.955399	-59.164734	220.916138	985.770813	-451.364838	310.249268	983.984253	-452.946716	313.126556	1036.634399	-438.566376	394.005371	971.070190	-435.367645	487.298737	908.335510	-402.162933	397.751404	849.509460	-434.956055	336.484589	788.856201	-427.941284	273.542572	731.372925	-415.736755	375.861816	751.640991	-398.813019	179.741714	641.529663	-402.052399	207.772964	634.697449	-319.845154	120.600838	647.770447	-356.897430	310.493225	443.781250	-370.080872	219.543076	503.300568	-433.758789	-223.362198	893.710510	-249.404053	-12.149623	84.572464	-453.787140	-20.346697	80.823494	-53.720978	
